<svg width="760" height="180" viewBox="0 0 760 180" fill="none" xmlns="http://www.w3.org/2000/svg" role="img" aria-labelledby="title desc">
  <title id="title">GoTrendLabs oracle mask logo</title>
  <desc id="desc">An unconventional mask mark for public takes, hidden signals, and reputation.</desc>
  <rect width="760" height="180" rx="12" fill="#F7F4EC"/>
  <g transform="translate(30 18)">
    <path d="M68 0C112 15 131 41 131 80C131 119 106 144 68 144C29 144 5 119 5 80C5 41 24 15 68 0Z" fill="#111315"/>
    <path d="M36 63C48 50 61 50 73 63C85 50 98 50 110 63" stroke="#F4FF00" stroke-width="9" stroke-linecap="round"/>
    <path d="M44 96H95" stroke="#F7F4EC" stroke-width="9" stroke-linecap="round"/>
    <path d="M68 22V122" stroke="#FF2E63" stroke-width="7" stroke-linecap="round"/>
    <circle cx="44" cy="76" r="7" fill="#F7F4EC"/>
    <circle cx="96" cy="76" r="7" fill="#F7F4EC"/>
  </g>
  <text x="190" y="79" fill="#111315" font-family="Arial Black, IBM Plex Sans, Inter, Arial, sans-serif" font-size="45" font-weight="900">GoTrendLabs</text>
  <text x="192" y="122" fill="#5B605F" font-family="IBM Plex Mono, IBM Plex Sans, Inter, Arial, sans-serif" font-size="17" font-weight="800">PUBLIC TAKES. HIDDEN SIGNALS.</text>
  <text x="627" y="101" fill="#111315" font-family="Arial Black, IBM Plex Sans, Inter, Arial, sans-serif" font-size="34" font-weight="900">TAKE</text>
</svg>
