<svg width="760" height="180" viewBox="0 0 760 180" fill="none" xmlns="http://www.w3.org/2000/svg" role="img" aria-labelledby="title desc">
  <title id="title">GoTrendLabs loop logo</title>
  <desc id="desc">A loop mark for market cycles, predictions, outcomes, and reputation feedback.</desc>
  <rect width="760" height="180" rx="24" fill="#101214"/>
  <g transform="translate(25 33)">
    <path d="M37 57C37 31 56 12 83 12C112 12 132 33 132 57C132 82 113 102 87 102C66 102 52 89 38 70C29 57 21 45 11 45C3 45 0 51 0 57C0 64 5 69 12 69" stroke="#FFFFFF" stroke-width="14" stroke-linecap="round"/>
    <path d="M97 43L122 57L97 71" stroke="#24C06F" stroke-width="11" stroke-linecap="round" stroke-linejoin="round"/>
    <circle cx="37" cy="57" r="12" fill="#FFB000"/>
  </g>
  <text x="190" y="84" fill="#FFFFFF" font-family="Inter, IBM Plex Sans, Arial, sans-serif" font-size="45" font-weight="900">GoTrendLabs</text>
  <text x="192" y="122" fill="#B8C2BF" font-family="Inter, IBM Plex Sans, Arial, sans-serif" font-size="18" font-weight="700">Prever, resolver, ganhar reputacao, repetir.</text>
  <text x="638" y="100" fill="#FFFFFF" font-family="Inter, IBM Plex Sans, Arial, sans-serif" font-size="32" font-weight="900">LOOP</text>
</svg>
